<?xml version="1.0" standalone="no"?>
<!DOCTYPE svg PUBLIC "-//W3C//DTD SVG 20010904//EN"
 "http://www.w3.org/TR/2001/REC-SVG-20010904/DTD/svg10.dtd">
<svg version="1.0" xmlns="http://www.w3.org/2000/svg"
 width="376.000000pt" height="382.000000pt" viewBox="0 0 376.000000 382.000000"
 preserveAspectRatio="xMidYMid meet">
<metadata>
Created by potrace 1.15, written by Peter Selinger 2001-2017
</metadata>
<g transform="translate(0.000000,382.000000) scale(0.100000,-0.100000)"
fill="#000000" stroke="none">
<path d="M1700 3734 c-103 -13 -266 -49 -359 -81 -102 -34 -316 -131 -307
-140 2 -2 22 5 45 16 50 26 246 95 361 127 159 45 254 57 440 58 177 0 367
-22 514 -60 96 -25 74 -9 -26 19 -169 47 -253 59 -448 62 -102 2 -201 1 -220
-1z"/>
<path d="M1675 3614 c-207 -32 -367 -81 -497 -153 -138 -77 -158 -97 -37 -38
268 133 587 194 875 168 133 -12 294 -44 399 -79 88 -30 79 -19 -13 17 -198
76 -237 83 -477 86 -121 2 -233 1 -250 -1z"/>
<path d="M1815 3500 c-224 -19 -439 -80 -643 -185 -171 -88 -294 -177 -432
-315 -136 -136 -226 -259 -314 -430 -122 -238 -173 -439 -184 -725 l-7 -180
-19 118 c-57 361 69 809 323 1142 68 89 243 286 298 334 l48 43 -55 -42 c-71
-53 -228 -208 -290 -285 -99 -125 -209 -320 -260 -463 -13 -34 -25 -60 -27
-58 -9 9 71 224 119 321 113 228 257 405 483 593 36 30 34 29 -21 -7 -159
-104 -260 -208 -381 -393 -196 -298 -283 -614 -283 -1023 0 -331 70 -605 226
-886 146 -263 197 -334 339 -475 257 -254 553 -410 910 -481 140 -28 504 -25
642 5 355 77 665 249 905 500 185 194 312 410 397 676 97 303 101 672 9 980
-16 56 -42 148 -58 206 -114 423 -391 797 -725 980 -75 42 -63 28 40 -41 109
-74 291 -253 386 -378 76 -102 177 -283 218 -390 27 -73 16 -58 -68 89 -97
168 -187 284 -323 416 -115 111 -272 226 -392 286 -76 38 -72 33 29 -33 144
-93 358 -269 418 -344 23 -29 8 -19 -53 35 -104 93 -174 141 -310 213 -291
153 -625 223 -945 197z m406 -44 c257 -42 511 -147 714 -295 114 -83 279 -245
361 -354 121 -160 198 -342 246 -579 32 -158 31 -379 -1 -528 -46 -218 -128
-417 -238 -585 -109 -166 -214 -278 -478 -510 -16 -15 4 -4 45 24 269 181 502
481 621 801 37 100 37 75 -1 -42 -83 -252 -232 -491 -430 -687 l-85 -85 75 61
c162 132 263 260 365 463 133 266 190 531 183 853 -1 86 0 150 4 144 18 -35
33 -189 32 -357 -1 -160 -4 -202 -27 -311 -71 -337 -209 -604 -435 -841 -502
-526 -1279 -671 -1938 -363 -135 63 -313 184 -409 277 l-80 79 80 -54 c44 -30
121 -76 170 -101 97 -51 96 -49 -34 35 -269 174 -500 445 -585 687 -8 23 -13
42 -11 42 2 0 19 -29 39 -64 75 -135 210 -300 339 -414 87 -78 256 -196 341
-239 66 -33 59 -26 -38 37 -322 210 -575 497 -706 800 -44 101 -59 169 -70
328 -30 443 120 888 413 1223 277 316 669 521 1092 569 103 11 336 4 446 -14z"/>
<path d="M2577 489 c-54 -29 -258 -95 -347 -113 -235 -47 -458 -48 -680 -1
-121 25 -125 25 -50 0 150 -50 218 -58 430 -52 208 6 367 31 477 75 66 27 213
101 213 107 0 7 0 7 -43 -16z"/>
<path d="M2765 453 c-87 -46 -333 -142 -428 -168 -280 -75 -537 -81 -824 -19
-111 23 -248 57 -290 70 -17 5 -17 5 0 -6 33 -21 216 -78 325 -102 94 -20 134
-23 337 -23 255 0 305 7 515 71 112 34 349 143 400 184 33 26 25 24 -35 -7z"/>
</g>
</svg>
